Coordinates
version=1
nRows=10
nColumns=33
inDegrees=yes

Units are S.I. units (second, meters, Newtons, ...)
Angles are in degrees.

endheader
time	ground_thorax_rot_x	ground_thorax_rot_y	ground_thorax_rot_z	ground_thorax_tx	ground_thorax_ty	ground_thorax_tz	clav_prot_r	clav_elev_r	scapula_abduction_r	scapula_elevation_r	scapula_upward_rot_r	scapula_winging_r	shoulder_elv_r	plane_of_elev_r	axial_rot_r	elbow_flexion_r	pro_sup_r	wrist_flex_r	wrist_dev_r	clav_prot_l	clav_elev_l	scapula_abduction_l	scapula_elevation_l	scapula_upward_rot_l	scapula_winging_l	shoulder_elv_l	plane_of_elev_l	axial_rot_l	elbow_flexion_l	pro_sup_l	wrist_flex_l	wrist_dev_l
     11.25000000	    -31.46657061	    -28.12430386	     36.33303743	   -100.96958557	    855.57764428	    -47.91710709	     26.97483239	    -45.00000000	     40.78443586	    -45.00000000	    -45.00000000	  -2627.64514671	  -3881.55584992	     21.62415335	   -147.21040181	   1798.73772844	   -198.46705401	     16.66805799	     14.10683773	     -0.57948734	     33.31584982	    -32.87012109	    -45.00000000	    -45.00000000	  -2070.31529976	  -2440.97935128	     27.09647800	     48.40872618	   1428.69418159	     35.05195079	     14.67315652	    -18.73866490
     11.26000000	    -31.59416697	    -27.92077406	     36.06358705	   -102.20301466	    855.80294726	    -48.08670979	     26.93485888	    -45.00000000	     40.66208730	    -45.00000000	    -45.00000000	  -2627.73246043	  -3881.55260856	     21.61629253	   -147.02621292	   1798.75489167	   -198.14332525	     16.75574229	     14.04385767	     -0.64362054	     33.29698509	    -32.96614972	    -45.00000000	    -45.00000000	  -2070.23956628	  -2441.03343466	     27.09776937	     48.37134439	   1428.65315442	     35.06574104	     14.68246883	    -18.89194897
     11.27000000	    -31.69119191	    -27.72691944	     35.78957279	   -103.42503737	    855.97605541	    -48.24195032	     26.92896786	    -45.00000000	     40.58203181	    -45.00000000	    -45.00000000	  -2627.80746234	  -3881.54941695	     21.63530442	   -146.85686090	   1798.73540887	   -197.83931335	     16.82195885	     14.01078647	     -0.67125713	     33.29404425	    -32.92706258	    -45.00000000	    -45.00000000	  -2070.23773854	  -2441.04263798	     27.10463394	     48.30679357	   1428.68681728	     35.07780308	     14.63893276	    -19.01107940
     11.28000000	    -31.74357035	    -27.57066322	     35.54981562	   -104.61263878	    856.09737131	    -48.38107676	     26.91633297	    -45.00000000	     40.53985239	    -45.00000000	    -45.00000000	  -2627.86178270	  -3881.52045653	     21.60416225	   -146.68962742	   1798.74238195	   -197.54902943	     16.88536351	     13.95302639	     -0.66561641	     33.28622620	    -32.87077449	    -45.00000000	    -45.00000000	  -2070.25073731	  -2441.09156282	     27.10038646	     48.25007045	   1428.69817161	     35.10246432	     14.59048145	    -19.11898525
     11.29000000	    -31.80179758	    -27.40861137	     35.31009033	   -105.77093503	    856.17267990	    -48.50458265	     26.91935786	    -45.00000000	     40.48344764	    -45.00000000	    -45.00000000	  -2627.91953927	  -3881.50424667	     21.60253258	   -146.52167545	   1798.74570516	   -197.27064154	     16.94276805	     13.89985145	     -0.69548209	     33.28661106	    -32.82445501	    -45.00000000	    -45.00000000	  -2070.26703818	  -2441.13843935	     27.06888432	     48.16723673	   1428.72412706	     35.13312830	     14.53789637	    -19.24330504
     11.30000000	    -31.84507455	    -27.23808960	     35.15236310	   -106.89062948	    856.20514219	    -48.60960693	     26.93525453	    -45.00000000	     40.46055972	    -45.00000000	    -45.00000000	  -2627.98914881	  -3881.50751792	     21.53667575	   -146.37454245	   1798.73483318	   -197.00320200	     17.00522144	     13.84519047	     -0.68438240	     33.27680842	    -32.78373011	    -45.00000000	    -45.00000000	  -2070.27103376	  -2441.11652395	     27.06087287	     48.06108389	   1428.72488468	     35.18437713	     14.47913521	    -19.33814165
     11.31000000	    -31.90316343	    -27.09614146	     34.95732016	   -107.96210795	    856.19870100	    -48.69259549	     26.95203616	    -45.00000000	     40.38176895	    -45.00000000	    -45.00000000	  -2628.06328442	  -3881.53689293	     21.49935227	   -146.21303044	   1798.72263691	   -196.76622558	     17.06809911	     13.78757068	     -0.72838313	     33.26871589	    -32.74923705	    -45.00000000	    -45.00000000	  -2070.27983664	  -2441.16654138	     27.04274582	     47.97079063	   1428.69685007	     35.24331756	     14.43413594	    -19.46946228
     11.32000000	    -31.94690094	    -26.93034827	     34.75136285	   -108.99026106	    856.15695040	    -48.75117934	     26.95506943	    -45.00000000	     40.33636365	    -45.00000000	    -45.00000000	  -2628.11171056	  -3881.54170014	     21.47962615	   -146.06202603	   1798.74607212	   -196.57202674	     17.11627862	     13.72661390	     -0.73956692	     33.25579630	    -32.69725821	    -45.00000000	    -45.00000000	  -2070.30715997	  -2441.20899532	     27.02537543	     47.89707351	   1428.70045243	     35.30580373	     14.37852673	    -19.59600869
     11.33000000	    -31.98353865	    -26.76460603	     34.57603133	   -109.96830721	    856.08340103	    -48.78297482	     26.97231272	    -45.00000000	     40.29844166	    -45.00000000	    -45.00000000	  -2628.15336085	  -3881.55299899	     21.44337784	   -145.92403445	   1798.77229092	   -196.41719444	     17.16443775	     13.66254856	     -0.75180169	     33.25098052	    -32.63498100	    -45.00000000	    -45.00000000	  -2070.34102876	  -2441.23415962	     27.02488819	     47.81411500	   1428.71496119	     35.37697698	     14.32345578	    -19.71776717
     11.34000000	    -32.02991664	    -26.60035658	     34.36029354	   -110.89908367	    855.98095634	    -48.78748435	     26.98281432	    -45.00000000	     40.22651233	    -45.00000000	    -45.00000000	  -2628.20882618	  -3881.55526809	     21.45603824	   -145.77638422	   1798.78741394	   -196.30505540	     17.21847482	     13.59650356	     -0.77485350	     33.24545753	    -32.50824554	    -45.00000000	    -45.00000000	  -2070.39251525	  -2441.27758586	     27.05574011	     47.70988829	   1428.70983514	     35.45492271	     14.27113826	    -19.84931840
